<?xml version="1.0" encoding="iso-8859-1"?>
<!-- Generator: Adobe Illustrator 19.0.0, SVG Export Plug-In . SVG Version: 6.00 Build 0)  -->
<svg version="1.1" id="Capa_1" xmlns="http://www.w3.org/2000/svg" xmlns:xlink="http://www.w3.org/1999/xlink" x="0px" y="0px"
	 viewBox="0 0 507.947 507.947" style="enable-background:new 0 0 507.947 507.947;" xml:space="preserve">
<g>
	<g>
		<path d="M442.339,88.305l-2.8-47.3c-0.5-7.8-7-13.8-14.9-13.3c-7.8,0.5-13.7,7.1-13.3,14.9l0.8,13.9
			c-40.8-30.5-90.3-47.1-142.3-47.1c-63.6,0-123.4,24.8-168.3,69.7c-5.5,5.5-5.5,14.4,0,20c7.6,7.6,17.2,2.8,20,0
			c39.6-39.6,92.3-61.5,148.4-61.5c44.6,0,87,13.8,122.4,39.4l-12.2,0.8c-7.8,0.5-13.7,7.1-13.3,14.9c0.4,7.5,6.7,13.3,14.1,13.3
			c0.3,0,48.1-2.8,48.1-2.8C436.839,102.705,442.739,96.105,442.339,88.305z"/>
	</g>
</g>
<g>
	<g>
		<path d="M215.539,450.105c-100.6-26.9-164.4-123-154.4-223.4l6.7,10.1c2.7,4.1,11.3,9,19.5,4c6.6-4.1,8.3-13,4-19.5l-26-39.6
			c-2.1-3.1-5.3-5.3-8.9-6.1c-3.7-0.7-7.5,0-10.6,2l-39.5,26c-6.5,4.3-8.3,13-4,19.5s13,8.3,19.5,4l11.7-7.7
			c-13.7,115.6,59.2,227,174.7,257.9c1.2,0.3,13.7,1.8,17.3-10C227.839,459.905,223.139,452.105,215.539,450.105z"/>
	</g>
</g>
<g>
	<g>
		<path d="M499.839,185.805c-2-7.5-9.8-12-17.3-10s-12,9.8-10,17.3c26.9,100.6-24.3,204-116.3,245.5l5.4-10.9
			c3.5-7,0.7-15.4-6.3-18.9s-15.5-0.7-18.9,6.3l-21.2,42.3c-3.5,7-0.7,15.4,6.3,18.9l42.3,21.2c2,1,13.3,3.5,18.9-6.3
			c3.9-6.8,0.7-15.4-6.3-18.9l-12.7-6.4C470.739,420.105,530.739,301.405,499.839,185.805z"/>
	</g>
</g>
<g>
	<g>
		<path d="M204.739,298.105l25.4-26.5c9.9-10.3,25.9-24.9,25.9-46.2c0-13.3-10.2-43-45.7-43c-27,0-45,20.8-51.6,31l25.1,14.9
			c7.9-12.6,16.3-18.9,25.1-18.9c17.1,0,16.5,11.8,16.5,16.5c0,12.4-14.8,26.3-23.1,34.8l-41.2,42.2v23.3h99.1v-28.1H204.739z"/>
	</g>
</g>
<g>
	<g>
		<polygon points="365.039,265.405 365.039,240.905 334.939,240.905 334.939,265.405 315.039,265.405 362.639,185.605 
			328.539,185.605 278.439,268.605 278.439,292.505 334.939,292.505 334.939,326.105 365.039,326.105 365.039,292.505 
			380.939,292.505 380.939,265.405 		"/>
	</g>
</g>
<g>
	<g>
		<path d="M415.139,167.505c-4.8,0-9.1,1.9-12.9,5.8v-22.4h-12.7v62.8h12.7v-24.6c0-3.6,0.9-10.8,9.5-10.8c5.1,0,7.7,3.5,7.7,10.5
			v24.9h12.7v-27.6C432.139,177.105,426.539,167.505,415.139,167.505z"/>
	</g>
</g>
<g>
</g>
<g>
</g>
<g>
</g>
<g>
</g>
<g>
</g>
<g>
</g>
<g>
</g>
<g>
</g>
<g>
</g>
<g>
</g>
<g>
</g>
<g>
</g>
<g>
</g>
<g>
</g>
<g>
</g>
</svg>
