<?xml version="1.0" encoding="iso-8859-1"?>
<!-- Generator: Adobe Illustrator 19.0.0, SVG Export Plug-In . SVG Version: 6.00 Build 0)  -->
<svg version="1.1" id="Capa_1" xmlns="http://www.w3.org/2000/svg" xmlns:xlink="http://www.w3.org/1999/xlink" x="0px" y="0px"
	 viewBox="0 0 480.501 480.501" style="enable-background:new 0 0 480.501 480.501;" xml:space="preserve">
<g>
	<g>
		<path d="M480.492,13.789l-0.985-9.846h-9.846c-2.954,0.985-70.892,3.939-141.785,36.431
			c-60.061,27.569-111.261,67.939-151.631,120.123C98.462,259.943,65.969,318.035,78.769,333.789l83.692,75.815l6.892-2.954
			c5.908-2.954,163.446-75.816,212.677-159.508C483.446,74.835,480.492,15.758,480.492,13.789z M365.292,237.297
			C323.938,307.204,194.954,372.189,166.4,385.974l-69.908-63.015c0.985-7.877,10.831-42.338,96.492-149.662
			c37.415-49.231,86.646-87.631,143.754-114.215c51.2-23.631,101.415-31.508,123.077-33.477
			C455.877,48.25,439.138,111.266,365.292,237.297z"/>
	</g>
</g>
<g>
	<g>
		
			<rect x="370.726" y="26.421" transform="matrix(0.6474 -0.7621 0.7621 0.6474 66.7703 321.2299)" width="19.692" height="124.057"/>
	</g>
</g>
<g>
	<g>
		<path d="M9.846,266.835L0,279.635l96.492,18.708l3.939-18.708l-64.985-12.8c80.739-96.492,146.708-89.6,147.692-89.6l2.954-19.692
			C182.154,156.558,102.4,146.712,9.846,266.835z"/>
	</g>
</g>
<g>
	<g>
		<path d="M326.892,283.574c-15.754,102.4-68.923,142.769-90.585,155.569l-24.615-64l-18.708,6.892l32.492,83.692l9.846-3.939
			c2.954-1.969,89.6-37.415,111.262-175.261L326.892,283.574z"/>
	</g>
</g>
<g>
	<g>
		<path d="M256,262.897c-0.985-10.831-4.923-19.692-12.8-26.585c-7.877-6.892-18.708-10.831-29.538-9.846
			c-21.661,1.969-39.385,19.692-38.4,41.354c0.984,10.831,4.923,19.692,12.8,26.585c7.877,6.892,17.723,10.831,27.569,10.831
			c0.985,0,0.985,0,1.969-0.985C239.262,302.281,256.985,284.558,256,262.897z M217.6,286.527
			c-5.908,0.985-11.815-0.985-15.754-4.923c-3.938-3.938-5.908-7.877-5.908-12.8c-0.985-10.831,7.877-19.692,19.692-20.677h0.985
			c4.923,0,9.846,0.985,14.769,4.923c3.939,3.938,5.908,7.877,5.908,12.8C238.277,276.681,229.415,285.543,217.6,286.527z"/>
	</g>
</g>
<g>
	<g>
		<path d="M341.661,178.22c-0.985-10.831-4.923-19.692-12.8-26.585c-7.877-6.892-18.708-10.831-29.538-9.846
			c-21.661,1.969-39.385,19.692-38.4,41.354c0.985,10.831,4.923,19.692,12.8,26.585s17.723,10.831,27.569,10.831
			c0.985,0,0.985,0,1.969-0.985C324.923,217.604,342.646,199.881,341.661,178.22z M303.262,201.851
			c-5.908,0.985-11.815-0.985-15.754-4.923c-3.939-3.938-5.908-7.877-5.908-12.8c-0.985-10.831,7.877-19.692,19.692-20.677h0.985
			c4.923,0,9.846,0.984,14.769,4.923c3.939,3.938,5.908,7.877,5.908,12.8C323.939,192.005,315.077,200.866,303.262,201.851z"/>
	</g>
</g>
<g>
	<g>
		<path d="M157.538,385.974l-19.692,1.969c0,0.985,1.969,49.231-101.415,65.969c25.6-102.4,61.046-105.354,61.046-105.354v-9.846
			v-9.846c-5.908,0-54.154,1.969-83.692,133.908l-2.954,13.785l13.784-1.969C162.461,457.85,157.538,388.927,157.538,385.974z"/>
	</g>
</g>
<g>
</g>
<g>
</g>
<g>
</g>
<g>
</g>
<g>
</g>
<g>
</g>
<g>
</g>
<g>
</g>
<g>
</g>
<g>
</g>
<g>
</g>
<g>
</g>
<g>
</g>
<g>
</g>
<g>
</g>
</svg>
