<?xml version="1.0" encoding="iso-8859-1"?>
<!-- Generator: Adobe Illustrator 19.0.0, SVG Export Plug-In . SVG Version: 6.00 Build 0)  -->
<svg version="1.1" id="Capa_1" xmlns="http://www.w3.org/2000/svg" xmlns:xlink="http://www.w3.org/1999/xlink" x="0px" y="0px"
	 viewBox="0 0 512.001 512.001" style="enable-background:new 0 0 512.001 512.001;" xml:space="preserve">
<g>
	<g>
		<path d="M505.382,262.727C498.056,137.553,394.192,37.972,265.619,33.22V9.035c0-4.994-4.048-9.035-9.036-9.035
			s-9.035,4.042-9.035,9.035V33.19C118.428,37.382,13.968,137.174,6.619,262.728c-0.235,4.144,2.385,7.927,6.343,9.156
			c3.964,1.228,8.27-0.409,10.414-3.957c12.366-20.443,35.141-34.28,61.398-34.274c29.178-0.007,54.116,17.064,65.133,41.285
			c1.47,3.222,4.692,5.295,8.235,5.295s6.765-2.078,8.223-5.307c14.071-31.052,44.73-53.519,81.192-56.549v40.032v190.344
			c0,12.504-5.048,23.739-13.234,31.942c-8.198,8.186-19.438,13.227-31.942,13.234c-12.504-0.007-23.739-5.042-31.942-13.234
			c-8.186-8.204-13.234-19.444-13.234-31.942c0-4.994-4.048-9.035-9.035-9.035s-9.035,4.042-9.035,9.035
			c0.012,34.931,28.317,63.241,63.247,63.247c34.931-0.007,63.235-28.317,63.247-63.247V258.41v-39.906
			c35.943,3.415,66.096,25.708,80.023,56.422c1.458,3.229,4.668,5.3,8.223,5.307c3.541,0,6.753-2.072,8.223-5.295
			c11.011-24.221,35.955-41.292,65.133-41.285c26.257,0,49.037,13.83,61.398,34.274c2.139,3.548,6.445,5.187,10.414,3.957
			C502.991,270.655,505.617,266.865,505.382,262.727z M164.087,148.692c-7.457,28.214-12.427,60.235-14.282,94.497
			c-16.294-16.993-39.4-27.6-65.037-27.607c-21.467,0-41.14,7.469-56.555,19.866c17.143-90.179,89.33-161.702,181.58-179.881
			c-3.602,3.771-7.059,7.909-10.355,12.433C184.711,88.299,172.766,115.947,164.087,148.692z M255.994,199.927
			c-35.105,0.007-66.578,15.282-87.871,39.442c3.247-51.302,13.8-96.894,28.72-130.247c8.433-18.908,18.281-33.823,28.504-43.617
			c5.108-4.91,10.282-8.535,15.39-10.914c5.108-2.374,10.132-3.53,15.258-3.536c5.133,0.007,10.156,1.162,15.258,3.536
			c8.927,4.138,18.107,12.222,26.684,24.034c12.884,17.685,24.269,43.502,32.497,74.674c6.765,25.558,11.403,54.736,13.39,86.022
			C322.536,215.197,291.087,199.934,255.994,199.927z M427.219,215.582c-25.649,0.006-48.767,10.619-65.06,27.618
			c-2.987-55.091-13.962-104.34-30.515-141.444c-8.39-18.745-18.198-34.394-29.486-46.195
			c92.269,18.167,164.472,89.697,181.609,179.881C468.359,223.052,448.686,215.589,427.219,215.582z"/>
	</g>
</g>
<g>
</g>
<g>
</g>
<g>
</g>
<g>
</g>
<g>
</g>
<g>
</g>
<g>
</g>
<g>
</g>
<g>
</g>
<g>
</g>
<g>
</g>
<g>
</g>
<g>
</g>
<g>
</g>
<g>
</g>
</svg>
